<?xml version="1.0" encoding="UTF-8" standalone="no"?>
<!-- Created with Inkscape (http://www.inkscape.org/) -->

<svg
   width="210mm"
   height="297mm"
   viewBox="0 0 210 297"
   version="1.1"
   id="svg5"
   inkscape:version="1.2.2 (b0a8486541, 2022-12-01)"
   sodipodi:docname="stripe_raw.svg"
   xmlns:inkscape="http://www.inkscape.org/namespaces/inkscape"
   xmlns:sodipodi="http://sodipodi.sourceforge.net/DTD/sodipodi-0.dtd"
   xmlns="http://www.w3.org/2000/svg"
   xmlns:svg="http://www.w3.org/2000/svg">
  <sodipodi:namedview
     id="namedview7"
     pagecolor="#505050"
     bordercolor="#eeeeee"
     borderopacity="1"
     inkscape:showpageshadow="0"
     inkscape:pageopacity="0"
     inkscape:pagecheckerboard="0"
     inkscape:deskcolor="#505050"
     inkscape:document-units="mm"
     showgrid="false"
     inkscape:zoom="0.74938378"
     inkscape:cx="-2882.3682"
     inkscape:cy="3097.2114"
     inkscape:window-width="1536"
     inkscape:window-height="888"
     inkscape:window-x="0"
     inkscape:window-y="0"
     inkscape:window-maximized="1"
     inkscape:current-layer="layer1" />
  <defs
     id="defs2" />
  <g
     inkscape:label="Layer 1"
     inkscape:groupmode="layer"
     id="layer1">
    <g
       id="g1281"
       transform="rotate(45,126.72541,136.3051)">
      <path
         id="rect234-3"
         style="fill:#280b0b;stroke:none;stroke-width:0.372892;stroke-opacity:0"
         d="M 173.22541,113.10993 H 80.232787 v 23.19511 h 92.992623 z" />
      <path
         id="path1037-56"
         style="fill:#ffffff;stroke:none;stroke-width:0.372892"
         d="M 80.232787,89.805103 V 113.10993 H 173.22541 V 89.805103 Z" />
      <path
         id="rect234-7-2"
         style="fill:#280b0b;stroke:none;stroke-width:0.372892;stroke-opacity:0"
         d="M 173.21804,159.60999 H 80.225413 v 23.19511 h 92.992627 z" />
      <path
         id="path1037-5-9"
         style="fill:#ffffff;stroke:none;stroke-width:0.372892"
         d="m 80.225413,136.30517 v 23.30482 h 92.992627 v -23.30482 z" />
    </g>
    <path
       id="rect234-3-9"
       style="fill:#280b0b;stroke:none;stroke-width:0.372892;stroke-opacity:0"
       d="m -19.755684,147.22299 h -92.992626 v 23.19511 h 92.992626 z" />
    <path
       id="path1037-56-3"
       style="fill:#ffffff;stroke:none;stroke-width:0.372892"
       d="m -112.74831,123.91817 v 23.30482 h 92.992626 v -23.30482 z" />
    <path
       id="rect234-7-2-6"
       style="fill:#280b0b;stroke:none;stroke-width:0.372892;stroke-opacity:0"
       d="m -19.763054,193.72305 h -92.992636 v 23.19511 h 92.992636 z" />
    <path
       id="path1037-5-9-0"
       style="fill:#ffffff;stroke:none;stroke-width:0.372892"
       d="m -112.75569,170.41823 v 23.30482 h 92.992636 v -23.30482 z" />
    <g
       id="g2840"
       transform="matrix(0.27301058,0.27301058,-0.30396659,0.30396659,80.382468,158.50188)">
      <g
         id="g2829"
         transform="matrix(2.2266828,0,0,1,-379.79521,0)">
        <path
           id="rect234-3-9-4"
           style="fill:#280b0b;stroke:none;stroke-width:0.372892;stroke-opacity:0"
           d="m 402.61161,142.39217 h -92.99262 v 23.19511 h 92.99262 z" />
        <path
           id="path1037-56-3-7"
           style="fill:#ffffff;stroke:none;stroke-width:0.372892"
           d="m 309.61899,119.08735 v 23.30482 h 92.99262 v -23.30482 z" />
        <path
           id="rect234-7-2-6-6"
           style="fill:#280b0b;stroke:none;stroke-width:0.372892;stroke-opacity:0"
           d="m 402.60424,188.89223 h -92.99263 v 23.19511 h 92.99263 z" />
        <path
           id="path1037-5-9-0-5"
           style="fill:#ffffff;stroke:none;stroke-width:0.372892"
           d="m 309.61161,165.58741 v 23.30482 h 92.99263 v -23.30482 z" />
        <path
           id="rect234-3-9-4-6"
           style="fill:#280b0b;stroke:none;stroke-width:0.372892;stroke-opacity:0"
           d="m 402.61711,49.388862 h -92.99262 v 23.19511 h 92.99262 z" />
        <path
           id="path1037-56-3-7-9"
           style="fill:#ffffff;stroke:none;stroke-width:0.372892"
           d="m 309.62449,26.084042 v 23.30482 h 92.99262 v -23.30482 z" />
        <path
           id="rect234-7-2-6-6-3"
           style="fill:#280b0b;stroke:none;stroke-width:0.372892;stroke-opacity:0"
           d="m 402.60974,95.888922 h -92.99263 v 23.195118 h 92.99263 z" />
        <path
           id="path1037-5-9-0-5-7"
           style="fill:#ffffff;stroke:none;stroke-width:0.372892"
           d="m 309.61711,72.584102 v 23.30482 h 92.99263 v -23.30482 z" />
      </g>
    </g>
    <g
       id="g2166"
       transform="translate(-110.21169,39.624819)">
      <g
         id="g2038"
         transform="rotate(45,9.6748845,297.89423)">
        <path
           id="rect1988"
           style="fill:#ffffff;fill-opacity:1;stroke:#ffaaaa;stroke-width:0.264583;stroke-opacity:0"
           d="m 265.96116,111.34553 -57.30979,57.30979 57.31015,3.6e-4 z"
           transform="rotate(45)" />
        <path
           id="path2033"
           style="fill:#000000;fill-opacity:1;stroke:#ffaaaa;stroke-width:0.264583;stroke-opacity:0"
           d="m 208.64991,111.34407 v 57.31125 h 0.001 l 57.30979,-57.30979 v -10e-4 z"
           transform="rotate(45)" />
      </g>
      <g
         id="g2038-6"
         transform="rotate(-135,110.34285,279.41868)">
        <path
           id="rect1988-1"
           style="fill:#ffffff;fill-opacity:1;stroke:#ffaaaa;stroke-width:0.264583;stroke-opacity:0"
           d="m 265.96116,111.34553 -57.30979,57.30979 57.31015,3.6e-4 z"
           transform="rotate(45)" />
        <path
           id="path2033-8"
           style="fill:#000000;fill-opacity:1;stroke:#ffaaaa;stroke-width:0.264583;stroke-opacity:0"
           d="m 208.64991,111.34407 v 57.31125 h 0.001 l 57.30979,-57.30979 v -10e-4 z"
           transform="rotate(45)" />
      </g>
    </g>
    <g
       id="g2166-7"
       transform="matrix(0.50483993,0,0,1.0009075,-97.056489,-52.777775)">
      <g
         id="g2038-3"
         transform="rotate(45,9.6748845,297.89423)">
        <path
           id="rect1988-6"
           style="fill:#ffffff;fill-opacity:1;stroke:#ffaaaa;stroke-width:0.264583;stroke-opacity:0"
           d="m 265.96116,111.34553 -57.30979,57.30979 57.31015,3.6e-4 z"
           transform="rotate(45)" />
        <path
           id="path2033-1"
           style="fill:#000000;fill-opacity:1;stroke:#ffaaaa;stroke-width:0.264583;stroke-opacity:0"
           d="m 208.64991,111.34407 v 57.31125 h 0.001 l 57.30979,-57.30979 v -10e-4 z"
           transform="rotate(45)" />
      </g>
      <g
         id="g2038-6-2"
         transform="rotate(-135,110.34285,279.41868)">
        <path
           id="rect1988-1-9"
           style="fill:#ffffff;fill-opacity:1;stroke:#ffaaaa;stroke-width:0.264583;stroke-opacity:0"
           d="m 265.96116,111.34553 -57.30979,57.30979 57.31015,3.6e-4 z"
           transform="rotate(45)" />
        <path
           id="path2033-8-3"
           style="fill:#000000;fill-opacity:1;stroke:#ffaaaa;stroke-width:0.264583;stroke-opacity:0"
           d="m 208.64991,111.34407 v 57.31125 h 0.001 l 57.30979,-57.30979 v -10e-4 z"
           transform="rotate(45)" />
      </g>
    </g>
    <rect
       style="fill:#ffffff;fill-opacity:1;stroke:#ffaaaa;stroke-width:0.233451;stroke-opacity:0"
       id="rect2409"
       width="49.285751"
       height="49.285751"
       x="132.02336"
       y="289.5878" />
    <path
       id="rect234-3-9-4-2"
       style="fill:#280b0b;stroke:none;stroke-width:0.226689;stroke-opacity:0"
       d="m 308.81167,293.12548 -56.53095,-56.53095 -7.05054,7.05054 56.53095,56.53095 z" />
    <path
       id="path1037-56-3-7-5"
       style="fill:#ffffff;stroke:none;stroke-width:0.226689"
       d="m 259.3646,229.51064 -7.08388,7.08389 56.53095,56.53095 7.08389,-7.08388 z" />
    <path
       id="rect234-7-2-6-6-4"
       style="fill:#280b0b;stroke:none;stroke-width:0.226689;stroke-opacity:0"
       d="m 294.67273,307.25547 -56.53096,-56.53096 -7.05054,7.05054 56.53096,56.53096 z" />
    <path
       id="path1037-5-9-0-5-74"
       style="fill:#ffffff;stroke:none;stroke-width:0.226689"
       d="m 245.22565,243.64062 -7.08388,7.08389 56.53096,56.53096 7.08388,-7.08389 z" />
    <path
       id="rect234-3-9-4-6-4"
       style="fill:#280b0b;stroke:none;stroke-width:0.226689;stroke-opacity:0"
       d="m 337.08491,264.85893 -56.53095,-56.53095 -7.05054,7.05053 56.53095,56.53096 z" />
    <path
       id="path1037-56-3-7-9-3"
       style="fill:#ffffff;stroke:none;stroke-width:0.226689"
       d="m 287.63784,201.24409 -7.08388,7.08389 56.53095,56.53095 7.08389,-7.08389 z" />
    <path
       id="rect234-7-2-6-6-3-0"
       style="fill:#280b0b;stroke:none;stroke-width:0.226689;stroke-opacity:0"
       d="m 322.94597,278.98891 -56.53096,-56.53096 -7.05054,7.05054 56.53096,56.53096 z" />
    <path
       id="path1037-5-9-0-5-7-7"
       style="fill:#ffffff;stroke:none;stroke-width:0.226689"
       d="m 273.49889,215.37407 -7.08388,7.08388 56.53096,56.53096 7.08388,-7.08388 z" />
    <rect
       style="fill:#ffffff;fill-opacity:1;stroke:#ffaaaa;stroke-width:0.233451;stroke-opacity:0"
       id="rect2409-8"
       width="49.285751"
       height="49.285751"
       x="262.67233"
       y="239.86626" />
    <path
       id="rect234-3-9-4-2-89"
       style="fill:#280b0b;stroke:none;stroke-width:0.226689;stroke-opacity:0"
       d="m 298.13639,160.96872 -56.53095,-56.53095 -7.05054,7.05054 56.53095,56.53095 z" />
    <path
       id="path1037-56-3-7-5-2"
       style="fill:#ffffff;stroke:none;stroke-width:0.226689"
       d="m 248.68932,97.353875 -7.08388,7.083895 56.53095,56.53095 7.08389,-7.08388 z" />
    <path
       id="rect234-7-2-6-6-4-6"
       style="fill:#280b0b;stroke:none;stroke-width:0.226689;stroke-opacity:0"
       d="m 283.99745,175.09871 -56.53096,-56.53096 -7.05054,7.05054 56.53096,56.53096 z" />
    <path
       id="path1037-5-9-0-5-74-6"
       style="fill:#ffffff;stroke:none;stroke-width:0.226689"
       d="m 234.55037,111.48386 -7.08388,7.08389 56.53096,56.53096 7.08388,-7.08389 z" />
    <path
       id="rect234-3-9-4-6-4-49"
       style="fill:#280b0b;stroke:none;stroke-width:0.226689;stroke-opacity:0"
       d="m 326.40963,132.70217 -56.53095,-56.530955 -7.05054,7.05053 56.53095,56.530965 z" />
    <path
       id="path1037-56-3-7-9-3-5"
       style="fill:#ffffff;stroke:none;stroke-width:0.226689"
       d="m 276.96256,69.087325 -7.08388,7.08389 56.53095,56.530955 7.08389,-7.08389 z" />
    <path
       id="rect234-7-2-6-6-3-0-0"
       style="fill:#280b0b;stroke:none;stroke-width:0.226689;stroke-opacity:0"
       d="m 312.27069,146.83215 -56.53096,-56.530965 -7.05054,7.05054 56.53096,56.530965 z" />
    <path
       id="path1037-5-9-0-5-7-7-4"
       style="fill:#ffffff;stroke:none;stroke-width:0.226689"
       d="m 262.82361,83.217305 -7.08388,7.08388 56.53096,56.530965 7.08388,-7.08388 z" />
    <rect
       style="fill:#ffffff;fill-opacity:1;stroke:#ffaaaa;stroke-width:0.233451;stroke-opacity:0"
       id="rect2409-8-8"
       width="49.285751"
       height="49.285751"
       x="251.99706"
       y="107.7095" />
    <rect
       style="fill:#ffffff;fill-opacity:1;stroke:#ffaaaa;stroke-width:0.233451;stroke-opacity:0"
       id="rect2409-8-8-7"
       width="49.285751"
       height="49.285751"
       x="251.99706"
       y="107.7095" />
    <rect
       style="fill:#ffffff;fill-opacity:1;stroke:#ffaaaa;stroke-width:0.233451;stroke-opacity:0"
       id="rect2409-8-8-1"
       width="49.285751"
       height="49.285751"
       x="251.99706"
       y="107.7095" />
    <path
       id="rect234-3-9-4-2-89-77"
       style="fill:#280b0b;stroke:none;stroke-width:0.226689;stroke-opacity:0"
       d="m 127.55986,-164.02642 -56.53095,-56.53095 -7.05054,7.05054 56.53095,56.53095 z" />
    <path
       id="path1037-56-3-7-5-2-1"
       style="fill:#ffffff;stroke:none;stroke-width:0.226689"
       d="m 78.11279,-227.64126 -7.08388,7.08389 56.53095,56.53095 7.08389,-7.08388 z" />
    <path
       id="rect234-7-2-6-6-4-6-1"
       style="fill:#280b0b;stroke:none;stroke-width:0.226689;stroke-opacity:0"
       d="m 113.42092,-149.89643 -56.530959,-56.53096 -7.05054,7.05054 56.530959,56.53096 z" />
    <path
       id="path1037-5-9-0-5-74-6-5"
       style="fill:#ffffff;stroke:none;stroke-width:0.226689"
       d="m 63.97384,-213.51128 -7.083879,7.08389 56.530959,56.53096 7.08388,-7.08389 z" />
    <path
       id="rect234-3-9-4-6-4-49-9"
       style="fill:#280b0b;stroke:none;stroke-width:0.226689;stroke-opacity:0"
       d="m 155.8331,-192.29297 -56.53095,-56.53095 -7.05054,7.05053 56.53095,56.53096 z" />
    <path
       id="rect234-7-2-6-6-3-0-0-7"
       style="fill:#280b0b;stroke:none;stroke-width:0.226689;stroke-opacity:0"
       d="m 141.69416,-178.16299 -56.53096,-56.53096 -7.05054,7.05054 56.53096,56.53096 z" />
    <path
       id="path1037-5-9-0-5-7-7-4-6"
       style="fill:#ffffff;stroke:none;stroke-width:0.226689"
       d="m 92.24708,-241.77783 -7.08388,7.08388 56.53096,56.53096 7.08388,-7.08388 z" />
    <rect
       style="fill:#ffffff;fill-opacity:1;stroke:#ffaaaa;stroke-width:0.199844;stroke-opacity:0"
       id="rect2409-8-8-73"
       width="42.19088"
       height="42.19088"
       x="81.403717"
       y="-210.17397" />
    <path
       id="rect234-3-9-4-2-89-77-7"
       style="fill:#280b0b;stroke:none;stroke-width:0.226689;stroke-opacity:0"
       d="m -675.85481,-34.650571 -56.53095,-56.53095 -7.05054,7.05054 56.53095,56.53095 z" />
    <path
       id="path1037-56-3-7-5-2-1-4"
       style="fill:#ffffff;stroke:none;stroke-width:0.226689"
       d="m -725.30188,-98.265411 -7.08388,7.08389 56.53095,56.53095 7.08389,-7.08388 z" />
    <path
       id="rect234-7-2-6-6-4-6-1-1"
       style="fill:#280b0b;stroke:none;stroke-width:0.226689;stroke-opacity:0"
       d="m -689.99375,-20.520581 -56.53096,-56.53096 -7.05054,7.05054 56.53096,56.53096 z" />
    <path
       id="path1037-5-9-0-5-74-6-5-8"
       style="fill:#ffffff;stroke:none;stroke-width:0.226689"
       d="m -739.44083,-84.135431 -7.08388,7.08389 56.53096,56.53096 7.08388,-7.08389 z" />
    <path
       id="rect234-3-9-4-6-4-49-9-5"
       style="fill:#280b0b;stroke:none;stroke-width:0.226689;stroke-opacity:0"
       d="m -647.58157,-62.917121 -56.53095,-56.530959 -7.05054,7.05054 56.53095,56.530959 z" />
    <path
       id="rect234-7-2-6-6-3-0-0-7-9"
       style="fill:#280b0b;stroke:none;stroke-width:0.226689;stroke-opacity:0"
       d="m -661.72051,-48.787141 -56.53096,-56.530959 -7.05054,7.050539 56.53096,56.53096 z" />
    <path
       id="path1037-5-9-0-5-7-7-4-6-7"
       style="fill:#ffffff;stroke:none;stroke-width:0.226689"
       d="m -711.16759,-112.40198 -7.08388,7.08388 56.53096,56.530959 7.08388,-7.08388 z" />
    <rect
       style="fill:#ffffff;fill-opacity:1;stroke:#ffaaaa;stroke-width:0.199844;stroke-opacity:0"
       id="rect2409-8-8-73-5"
       width="42.19088"
       height="42.19088"
       x="-722.01093"
       y="-80.798111" />
    <path
       id="rect234-3-9-4-2-89-77-7-3"
       style="fill:#280b0b;stroke:none;stroke-width:0.226689;stroke-opacity:0"
       d="m -472.02597,-49.839852 -7.05021,7.050733 56.53091,56.530916 7.05022,-7.050733 z m -14.13867,14.129887 -7.05073,7.050732 56.53091,56.530917 7.05074,-7.050733 z m -14.13454,14.136605 -7.05021,7.050732 56.53091,56.530917 7.05022,-7.050733 z m -14.13867,14.1298867 -7.05073,7.0507323 56.53091,56.530916 7.05074,-7.050732 z" />
    <path
       id="path1037-56-3-7-5-2-1-4-8"
       style="fill:#ffffff;stroke:none;stroke-width:0.226689"
       d="m -479.08083,-42.79377 -7.08381,7.083805 56.53092,56.530916 7.0838,-7.083805 z m -14.13454,14.136604 -7.08381,7.083806 56.53092,56.530916 7.08432,-7.083805 z m -14.13867,14.129887 -7.08381,7.0838057 56.53092,56.5309163 7.0838,-7.083805 z" />
    <rect
       style="fill:#ffffff;fill-opacity:1;stroke:#ffaaaa;stroke-width:0.200342;stroke-opacity:0"
       id="rect2409-8-8-73-5-6"
       width="42.296032"
       height="42.296032"
       x="-490.00797"
       y="-11.211255" />
    <path
       id="rect234-3-9-4-2-89-77-7-3-3"
       style="fill:#280b0b;stroke:none;stroke-width:0.226689;stroke-opacity:0"
       d="m -489.01201,142.50344 v 14.03015 l 28.26597,28.26598 h 14.03015 v -0.0708 l -42.22533,-42.22533 z m 14.24047,0 28.05565,28.05566 v -14.10147 l -13.95418,-13.95419 z m -14.24047,28.19777 v 14.09836 h 14.09836 z" />
    <path
       id="path1037-56-3-7-5-2-1-4-8-8"
       style="fill:#ffffff;stroke:none;stroke-width:0.226689"
       d="m -488.94122,142.50344 42.22533,42.22533 v -14.16812 l -28.05771,-28.05721 z m 28.27115,0 13.95418,13.95419 v -13.95419 z m -28.34194,14.03015 v 14.16762 l 14.09836,14.09836 h 14.16761 z" />
    <path
       id="rect234-3-9-4-2-89-77-7-3-4"
       style="fill:#280b0b;stroke:none;stroke-width:0.226689;stroke-opacity:0"
       d="m -700.36804,-0.223332 -7.05021,7.050733 56.53091,56.530916 7.05022,-7.050733 z m -14.13867,14.129887 -7.05073,7.050732 56.53091,56.530917 7.05074,-7.050733 z m -14.13454,14.136605 -7.05021,7.050732 56.53091,56.530921 7.05022,-7.050737 z m -14.13867,14.129887 -7.05073,7.050732 56.53091,56.530911 7.05074,-7.050727 z" />
    <path
       id="path1037-56-3-7-5-2-1-4-8-3"
       style="fill:#ffffff;stroke:none;stroke-width:0.226689"
       d="m -707.4229,6.82275 -7.08381,7.083805 56.53092,56.530916 7.0838,-7.083805 z m -14.13454,14.136604 -7.08381,7.083806 56.53092,56.530916 7.08432,-7.083805 z m -14.13867,14.129887 -7.08381,7.083806 56.53092,56.530916 7.0838,-7.0838 z" />
    <rect
       style="fill:#ffffff;fill-opacity:1;stroke:#ffaaaa;stroke-width:0.199844;stroke-opacity:0"
       id="rect2409-8-8-73-5-6-3"
       width="42.19088"
       height="42.19088"
       x="-718.26624"
       y="38.42662" />
    <g
       id="g4565"
       transform="translate(-42.956878,-13.035908)">
      <path
         id="rect234-3-9-4-2-89-77-3"
         style="fill:#280b0b;stroke:none;stroke-width:0.226689;stroke-opacity:0"
         d="m -182.32249,-27.950265 v 14.092163 l 28.09855,28.098543 h 14.09216 v -0.0083 l -42.18244,-42.182438 z m 14.17847,0 28.01224,28.01276044 V -14.038969 l -13.9113,-13.911296 z M -182.32249,0.31002555 V 14.240441 h 13.93042 z" />
      <path
         id="path1037-56-3-7-5-2-1-0"
         style="fill:#ffffff;stroke:none;stroke-width:0.226689"
         d="m -182.31422,-27.950265 42.18244,42.182438 V 0.06456249 L -168.14661,-27.950265 Z m 28.27114,0 13.9113,13.911296 v -13.911296 z m -28.27941,14.09268 V 0.31002555 l 13.93042,13.93041545 h 14.16761 z" />
    </g>
    <g
       id="g4561"
       transform="translate(-127.38767,-13.021903)">
      <path
         id="rect234-3-9-4-2-89-77-3-5"
         style="fill:#ffffff;fill-opacity:1;stroke:none;stroke-width:0.226689;stroke-opacity:0"
         d="m -140.10712,-27.963693 v 14.092163 l 28.09855,28.098543 h 14.092156 v -0.0083 l -42.182436,-42.182438 z m 14.17847,0 28.012236,28.01275982 V -14.052397 L -111.82771,-27.963693 Z M -140.10712,0.29659782 V 14.227013 h 13.93042 z" />
      <path
         id="path1037-56-3-7-5-2-1-0-9"
         style="fill:#280b0b;fill-opacity:1;stroke:none;stroke-width:0.226689"
         d="m -140.09885,-27.963693 42.182436,42.182438 V 0.05113382 L -125.93124,-27.963693 Z m 28.27114,0 13.911296,13.911296 v -13.911296 z m -28.27941,14.09268 V 0.29659782 L -126.1767,14.227013 h 14.16761 z" />
    </g>
    <path
       id="rect234-3-9-4-2-89-77-6"
       style="fill:#280b0b;stroke:none;stroke-width:0.225717;stroke-opacity:0"
       d="m -96.897788,-234.19152 -7.020482,7.02049 56.288403,56.2884 7.020486,-7.02048 z m -14.078532,14.06928 -7.02049,7.02048 56.28841,56.28841 7.020485,-7.02048 z m -14.0739,14.07596 -7.01997,7.02049 56.288402,56.2884 7.020485,-7.02049 z m -14.07802,14.06927 -7.02049,7.02049 56.288408,56.2884 7.020485,-7.02048 z" />
    <path
       id="path1037-56-3-7-5-2-1-3"
       style="fill:#ffffff;stroke:none;stroke-width:0.225717"
       d="m -103.92059,-227.17335 -7.05342,7.05342 56.28841,56.28841 7.053417,-7.05343 z m -14.07339,14.07596 -7.05393,7.05342 56.288922,56.2884 7.053417,-7.05341 z m -14.07853,14.06928 -7.05342,7.05341 56.288408,56.28841 7.053418,-7.05342 z" />
    <rect
       style="fill:#ffffff;fill-opacity:1;stroke:#ffaaaa;stroke-width:0.233229;stroke-opacity:0"
       id="rect2409-8-8-73-3"
       width="49.238728"
       height="49.238728"
       x="-117.99714"
       y="-206.05046" />
    <rect
       style="fill:#280b0b;fill-opacity:1;stroke:#ffaaaa;stroke-width:0.273845;stroke-opacity:0"
       id="rect5005"
       width="49.726158"
       height="49.726154"
       x="-436.03851"
       y="-167.07025"
       transform="rotate(-45)" />
    <rect
       style="fill:#f2f2f2;fill-opacity:1;stroke:#ffaaaa;stroke-width:0.303722;stroke-opacity:0"
       id="rect5005-8"
       width="86.778046"
       height="35.051277"
       x="-364.94043"
       y="172.39925" />
    <path
       id="rect5005-8-7"
       style="fill:#c83737;fill-opacity:1;stroke:#ffaaaa;stroke-width:0.303722;stroke-opacity:0"
       d="m -134.94644,289.28204 h -86.77816 v 17.41858 h 86.77816 z" />
    <path
       id="path5161"
       style="fill:#f2f2f2;fill-opacity:1;stroke:#ffaaaa;stroke-width:0.303722;stroke-opacity:0"
       d="m -221.7246,271.64901 v 17.63303 h 86.77816 v -17.63303 z" />
    <path
       id="rect5005-8-7-9"
       style="fill:#c83737;fill-opacity:1;stroke:#ffaaaa;stroke-width:0.303722;stroke-opacity:0"
       d="m -134.94689,254.23104 h -86.77816 v 17.41858 h 86.77816 z" />
    <path
       id="path5161-2"
       style="fill:#f2f2f2;fill-opacity:1;stroke:#ffaaaa;stroke-width:0.303722;stroke-opacity:0"
       d="m -221.72505,236.59801 v 17.63303 h 86.77816 v -17.63303 z" />
    <rect
       style="fill:#280b0b;fill-opacity:1;stroke:#ffaaaa;stroke-width:0.273845;stroke-opacity:0"
       id="rect5005-89-7"
       width="49.726158"
       height="49.726154"
       x="-555.4057"
       y="-157.84074"
       transform="rotate(-45)" />
    <rect
       style="fill:#f2f2f2;fill-opacity:1;stroke:#ffaaaa;stroke-width:0.303722;stroke-opacity:0"
       id="rect5005-8-7-6"
       width="86.778046"
       height="35.051277"
       x="-512.56873"
       y="281.2731" />
    <rect
       style="fill:#280b0b;fill-opacity:1;stroke:#ffaaaa;stroke-width:0.273845;stroke-opacity:0"
       id="rect5005-89"
       width="49.726158"
       height="49.726154"
       x="-413.59299"
       y="6.5847535"
       transform="rotate(-45)" />
    <path
       id="rect5005-8-7-5"
       style="fill:#c83737;fill-opacity:1;stroke:#ffaaaa;stroke-width:0.303722;stroke-opacity:0"
       d="m -369.7273,456.61192 v 17.41857 h 86.77816 v -17.41857 z m 0,35.05057 v 17.41858 h 86.77816 v -17.41858 z" />
    <path
       id="path5161-4"
       style="fill:#f2f2f2;fill-opacity:1;stroke:#ffaaaa;stroke-width:0.303722;stroke-opacity:0"
       d="m -369.7273,438.97889 v 17.63303 h 86.77816 v -17.63303 z m 0,35.05057 v 17.63303 h 86.77816 v -17.63303 z" />
    <rect
       style="fill:#280b0b;fill-opacity:1;stroke:#ffaaaa;stroke-width:0.273845;stroke-opacity:0"
       id="rect5005-89-9"
       width="49.726158"
       height="49.726154"
       x="-590.80884"
       y="79.570778"
       transform="rotate(-45)" />
    <g
       id="g5521"
       transform="matrix(0.99937384,0,0,0.9993719,-55.742539,-9.8030665)">
      <g
         id="g5410"
         transform="rotate(45,-536.7268,398.9793)">
        <path
           id="rect5005-8-7-5-4"
           style="fill:#c83737;fill-opacity:1;stroke:#ffaaaa;stroke-width:0.303722;stroke-opacity:0"
           d="m -473.81477,488.09214 -17.41806,17.41806 5.2e-4,5.1e-4 h 70.32232 l 5.2e-4,-5.1e-4 -17.41806,-17.41806 z m 0.21445,35.05057 17.41858,17.41858 0.11071,0.11047 17.52904,-17.52905 z"
           sodipodi:nodetypes="cccccccccccc" />
        <path
           id="path5161-4-6"
           style="fill:#f2f2f2;fill-opacity:1;stroke:#ffaaaa;stroke-width:0.303722;stroke-opacity:0"
           d="m -456.07254,470.34991 -17.74223,17.74223 h 35.48724 l -17.63303,-17.63303 z m -35.15977,35.15977 -5.2e-4,5.2e-4 17.63251,17.63251 h 35.05833 l 17.63252,-17.63251 -5.2e-4,-5.2e-4 z"
           sodipodi:nodetypes="cccccccccccc" />
      </g>
    </g>
    <g
       id="g5521-2"
       transform="matrix(0.99937384,0,0,0.9993719,-6.048003,-9.8030665)">
      <g
         id="g5410-8"
         transform="rotate(45,-536.7268,398.9793)">
        <path
           id="rect5005-8-7-5-4-9"
           style="fill:#c83737;fill-opacity:1;stroke:#ffaaaa;stroke-width:0.303722;stroke-opacity:0"
           d="m -473.81477,488.09214 -17.41806,17.41806 5.2e-4,5.1e-4 h 70.32232 l 5.2e-4,-5.1e-4 -17.41806,-17.41806 z m 0.21445,35.05057 17.41858,17.41858 0.11071,0.11047 17.52904,-17.52905 z"
           sodipodi:nodetypes="cccccccccccc" />
        <path
           id="path5161-4-6-3"
           style="fill:#f2f2f2;fill-opacity:1;stroke:#ffaaaa;stroke-width:0.303722;stroke-opacity:0"
           d="m -456.07254,470.34991 -17.74223,17.74223 h 35.48724 l -17.63303,-17.63303 z m -35.15977,35.15977 -5.2e-4,5.2e-4 17.63251,17.63251 h 35.05833 l 17.63252,-17.63251 -5.2e-4,-5.2e-4 z"
           sodipodi:nodetypes="cccccccccccc" />
      </g>
    </g>
    <g
       id="g5410-2"
       transform="rotate(45,-477.97996,458.32384)">
      <path
         id="rect5005-8-7-5-4-4"
         style="fill:#c83737;fill-opacity:1;stroke:#ffaaaa;stroke-width:0.303722;stroke-opacity:0"
         d="m -423.31462,438.8032 -17.41806,17.41806 5.2e-4,5.1e-4 h 70.32232 l 5.2e-4,-5.1e-4 -17.41806,-17.41806 z m 0.21445,35.05057 17.41858,17.41858 0.11002,0.11116 17.52973,-17.52974 z"
         sodipodi:nodetypes="cccccccccccc" />
      <path
         id="path5161-4-6-7"
         style="fill:#f2f2f2;fill-opacity:1;stroke:#ffaaaa;stroke-width:0.303722;stroke-opacity:0"
         d="m -423.69783,432.39166 -17.63303,17.63303 h 35.48724 l -17.63303,-17.63303 z m -35.05057,35.05057 -5.2e-4,5.2e-4 17.63251,17.63251 h 35.05833 l 17.63252,-17.63251 -5.2e-4,-5.2e-4 z" />
    </g>
    <rect
       style="fill:#c8b7b7;fill-opacity:1;stroke:none;stroke-width:0.481034;stroke-opacity:0"
       id="rect5665-2"
       width="49.518654"
       height="70.137993"
       x="-809.99493"
       y="516.28632" />
    <rect
       style="fill:#c83737;fill-opacity:1;stroke:#ffaaaa;stroke-width:0.404813;stroke-opacity:0"
       id="rect5665"
       width="49.595188"
       height="49.595188"
       x="-969.91016"
       y="-190.17595"
       transform="rotate(-45)" />
    <rect
       style="fill:#c8b7b7;fill-opacity:1;stroke:none;stroke-width:0.42276;stroke-opacity:0"
       id="rect5665-2-1"
       width="76.495422"
       height="35.069"
       x="-965.81281"
       y="539.52686" />
    <rect
       style="fill:#c83737;fill-opacity:1;stroke:#ffaaaa;stroke-width:0.404813;stroke-opacity:0"
       id="rect5665-0"
       width="49.595188"
       height="49.595188"
       x="-1086.5842"
       y="-273.98288"
       transform="rotate(-45)" />
    <path
       id="rect5665-0-1"
       style="fill:#c83737;fill-opacity:1;stroke:#ffaaaa;stroke-width:0.404813;stroke-opacity:0"
       d="m -1043.6944,493.32903 35.0692,35.06917 35.06914,-35.06917 z" />
    <path
       id="path5827"
       style="fill:#ffffff;fill-opacity:1;stroke:#ffaaaa;stroke-width:0.404813;stroke-opacity:0"
       d="m -1043.6944,493.32903 70.13834,0 -35.06924,-35.06864 z" />
    <g
       id="g5865"
       transform="rotate(45,-1031.8254,545.8431)">
      <path
         id="rect5665-0-1-1"
         style="fill:#c83737;fill-opacity:1;stroke:#ffaaaa;stroke-width:0.404813;stroke-opacity:0"
         d="m -1061.1389,604.24387 35.0692,35.06917 35.06918,-35.06917 z" />
      <path
         id="path5827-0"
         style="fill:#ffffff;fill-opacity:1;stroke:#ffaaaa;stroke-width:0.404813;stroke-opacity:0"
         d="m -1061.1389,604.24387 h 70.13838 l -35.06918,-35.06864 z" />
    </g>
    <g
       id="g5865-8"
       transform="rotate(-135,-1025.4631,596.35666)">
      <path
         id="rect5665-0-1-1-5"
         style="fill:#c83737;fill-opacity:1;stroke:#ffaaaa;stroke-width:0.404813;stroke-opacity:0"
         d="m -1061.1389,604.24387 35.0692,35.06917 35.06918,-35.06917 z" />
      <path
         id="path5827-0-0"
         style="fill:#ffffff;fill-opacity:1;stroke:#ffaaaa;stroke-width:0.404813;stroke-opacity:0"
         d="m -1061.1389,604.24387 h 70.13838 l -35.06918,-35.06864 z" />
    </g>
    <g
       id="g5865-6"
       transform="rotate(45,-1099.4489,573.92221)"
       style="stroke:none">
      <path
         id="rect5665-0-1-1-2"
         style="fill:#c83737;fill-opacity:1;stroke:none;stroke-width:0.404813;stroke-opacity:0"
         d="m -1061.1389,604.24387 35.0692,35.06917 35.06918,-35.06917 z" />
      <path
         id="path5827-0-8"
         style="fill:#ffffff;fill-opacity:1;stroke:none;stroke-width:0.404813;stroke-opacity:0"
         d="m -1061.1389,604.24387 h 70.13838 l -35.06918,-35.06864 z" />
    </g>
    <g
       id="g5865-6-2"
       transform="rotate(45,-1134.5181,658.58672)"
       style="stroke:none">
      <path
         id="rect5665-0-1-1-2-9"
         style="fill:#c83737;fill-opacity:1;stroke:none;stroke-width:0.404813;stroke-opacity:0"
         d="m -1061.1389,604.24387 35.0692,35.06917 35.06918,-35.06917 z" />
      <path
         id="path5827-0-8-9"
         style="fill:#ffffff;fill-opacity:1;stroke:none;stroke-width:0.404813;stroke-opacity:0"
         d="m -1061.1389,604.24387 h 70.13838 l -35.06918,-35.06864 z" />
    </g>
    <g
       id="g5865-8-4"
       transform="rotate(-135,-1013.8317,624.36701)"
       style="stroke:none">
      <path
         id="rect5665-0-1-1-5-7"
         style="fill:#c83737;fill-opacity:1;stroke:none;stroke-width:0.404813;stroke-opacity:0"
         d="m -1061.1389,604.24387 35.0692,35.06917 35.06918,-35.06917 z" />
      <path
         id="path5827-0-0-2"
         style="fill:#ffffff;fill-opacity:1;stroke:none;stroke-width:0.404813;stroke-opacity:0"
         d="m -1061.1389,604.24387 h 70.13838 l -35.06918,-35.06864 z" />
    </g>
    <g
       id="g5865-8-4-4"
       transform="rotate(-135,-1028.3578,659.4362)"
       style="stroke:none">
      <path
         id="rect5665-0-1-1-5-7-0"
         style="fill:#c83737;fill-opacity:1;stroke:none;stroke-width:0.404813;stroke-opacity:0"
         d="m -1061.1389,604.24387 35.0692,35.06917 35.06918,-35.06917 z" />
      <path
         id="path5827-0-0-2-6"
         style="fill:#ffffff;fill-opacity:1;stroke:none;stroke-width:0.404813;stroke-opacity:0"
         d="m -1061.1389,604.24387 h 70.13838 l -35.06918,-35.06864 z" />
    </g>
    <path
       id="rect5665-0-1-1-2-6"
       style="fill:#ffffff;fill-opacity:0.05588798;stroke:none;stroke-width:0.404813;stroke-opacity:0"
       d="m -803.92044,772.90993 v 49.59542 l 49.59542,49.59542 h 49.59491 l -49.59491,-49.59542 z m 49.59542,0 49.59491,49.59542 v -49.59542 z" />
    <path
       id="path5827-0-8-6"
       style="fill:#ffffff;fill-opacity:1;stroke:none;stroke-width:0.404813;stroke-opacity:0"
       d="m -803.92044,772.90993 49.59542,49.5949 -5.1e-4,-49.59439 z m 49.59542,49.5949 49.59491,5.2e-4 -49.59491,-49.59542 z m -49.59542,5.2e-4 5.2e-4,49.5949 49.5949,5.2e-4 z m 49.59542,0 49.59491,49.59542 v -49.59491 z" />
    <path
       id="rect5665-0-1-1-2-8"
       style="fill:#c83737;fill-opacity:1;stroke:#ffaaaa;stroke-width:0.404813;stroke-opacity:0"
       d="m -1293.9843,697.76174 10e-5,49.59532 49.5953,10e-6 z" />
    <path
       id="path5827-0-8-1"
       style="fill:#ffffff;fill-opacity:1;stroke:#ffaaaa;stroke-width:0.404813;stroke-opacity:0"
       d="m -1293.9843,697.76174 49.5954,49.59533 -4e-4,-49.59493 z" />
    <path
       id="rect5665-0-1-1-2-9-1"
       style="fill:#c83737;fill-opacity:1;stroke:#ffaaaa;stroke-width:0.404813;stroke-opacity:0"
       d="m -1244.3886,747.35662 v 49.59531 l 49.5953,1e-5 z" />
    <path
       id="path5827-0-8-9-1"
       style="fill:#ffffff;fill-opacity:1;stroke:#ffaaaa;stroke-width:0.404813;stroke-opacity:0"
       d="m -1244.3886,747.35662 49.5953,49.59532 -4e-4,-49.59493 z" />
    <path
       id="rect5665-0-1-1-5-7-3"
       style="fill:#c83737;fill-opacity:1;stroke:#ffaaaa;stroke-width:0.404813;stroke-opacity:0"
       d="m -1194.7949,747.35695 v -49.59531 l -49.5953,-1e-5 z" />
    <path
       id="path5827-0-0-2-4"
       style="fill:#ffffff;fill-opacity:1;stroke:#ffaaaa;stroke-width:0.404813;stroke-opacity:0"
       d="m -1194.7949,747.35695 -49.5953,-49.59532 4e-4,49.59493 z" />
    <path
       id="rect5665-0-1-1-5-7-0-3"
       style="fill:#c83737;fill-opacity:1;stroke:#ffaaaa;stroke-width:0.404813;stroke-opacity:0"
       d="m -1244.3884,796.95232 v -49.59531 l -49.5953,-10e-6 z" />
    <path
       id="path5827-0-0-2-6-9"
       style="fill:#ffffff;fill-opacity:1;stroke:#ffaaaa;stroke-width:0.404813;stroke-opacity:0"
       d="m -1244.3884,796.95232 -49.5953,-49.59532 4e-4,49.59493 z" />
    <path
       id="rect5665-0-1-1-2-8-1"
       style="fill:#c83737;fill-opacity:1;stroke:#ffaaaa;stroke-width:0.404813;stroke-opacity:0"
       d="m -1454.4498,598.384 1e-4,49.59532 49.5953,10e-6 z" />
    <path
       id="path5827-0-8-1-9"
       style="fill:#ffffff;fill-opacity:1;stroke:#ffaaaa;stroke-width:0.404813;stroke-opacity:0"
       d="m -1454.4498,598.384 49.5954,49.59533 -4e-4,-49.59493 z" />
    <path
       id="rect5665-0-1-1-2-9-1-6"
       style="fill:#c83737;fill-opacity:1;stroke:#ffaaaa;stroke-width:0.404813;stroke-opacity:0"
       d="m -1404.8541,647.97888 v 49.59531 l 49.5953,10e-6 z" />
    <path
       id="path5827-0-8-9-1-9"
       style="fill:#ffffff;fill-opacity:1;stroke:#ffaaaa;stroke-width:0.404813;stroke-opacity:0"
       d="m -1404.8541,647.97888 49.5953,49.59532 -4e-4,-49.59493 z" />
    <path
       id="rect5665-0-1-1-5-7-3-3"
       style="fill:#c83737;fill-opacity:1;stroke:#ffaaaa;stroke-width:0.404813;stroke-opacity:0"
       d="M -1355.2604,647.97921 V 598.3839 l -49.5953,-1e-5 z" />
    <path
       id="path5827-0-0-2-4-3"
       style="fill:#ffffff;fill-opacity:1;stroke:#ffaaaa;stroke-width:0.404813;stroke-opacity:0"
       d="m -1355.2604,647.97921 -49.5953,-49.59532 4e-4,49.59493 z" />
    <path
       id="rect5665-0-1-1-5-7-0-3-8"
       style="fill:#c83737;fill-opacity:1;stroke:#ffaaaa;stroke-width:0.404813;stroke-opacity:0"
       d="m -1404.8539,697.57458 v -49.59531 l -49.5953,-1e-5 z" />
    <path
       id="path5827-0-0-2-6-9-0"
       style="fill:#ffffff;fill-opacity:1;stroke:#ffaaaa;stroke-width:0.404813;stroke-opacity:0"
       d="m -1404.8539,697.57458 -49.5953,-49.59532 4e-4,49.59493 z" />
    <path
       id="path1037-56-3-7-5-2-2"
       style="fill:#ffffff;stroke:none;stroke-width:0.226689"
       d="m 275.74127,-94.878557 -7.08388,7.083895 56.53095,56.530954 7.08389,-7.08388 z" />
    <path
       id="path1037-5-9-0-5-74-6-2"
       style="fill:#ffffff;stroke:none;stroke-width:0.226689"
       d="m 261.60232,-80.748572 -7.08388,7.08389 56.53096,56.530964 7.08388,-7.08389 z" />
    <path
       id="path1037-56-3-7-9-3-5-6"
       style="fill:#ffffff;stroke:none;stroke-width:0.226689"
       d="m 304.01451,-123.14511 -7.08388,7.08389 56.53095,56.530958 7.08389,-7.08389 z" />
    <g
       id="g3352"
       style="fill:#ffffff"
       transform="translate(-151.39295,-50.368972)">
      <path
         id="rect234-3-9-4-2-89-7"
         style="fill:#ffffff;stroke:none;stroke-width:0.226689;stroke-opacity:0"
         d="m 191.65445,-26.199951 v 14.100948 l 28.06496,28.064954 h 14.10094 z" />
      <path
         id="rect234-7-2-6-6-4-6-7"
         style="fill:#ffffff;stroke:none;stroke-width:0.226689;stroke-opacity:0"
         d="M 191.65445,2.0686076 V 15.965951 h 13.89683 z" />
      <path
         id="rect234-3-9-4-6-4-49-2"
         style="fill:#ffffff;stroke:none;stroke-width:0.226689;stroke-opacity:0"
         d="m 226.97374,-33.319413 13.96659,13.966589 v -13.966589 z" />
      <path
         id="rect234-7-2-6-6-3-0-0-1"
         style="fill:#ffffff;stroke:none;stroke-width:0.226689;stroke-opacity:0"
         d="M 198.70467,-33.319413 240.94033,8.9162516 V -5.1852132 l -28.1342,-28.1341998 z" />
    </g>
    <g
       id="g3352-4"
       style="fill:#ffffff"
       transform="translate(-102.18181,-50.339798)">
      <path
         id="rect234-3-9-4-2-89-7-9"
         style="fill:#ffffff;stroke:none;stroke-width:0.226689;stroke-opacity:0"
         d="m 191.65445,-26.199951 v 14.100948 l 28.06496,28.064954 h 14.10094 z" />
      <path
         id="rect234-7-2-6-6-4-6-7-0"
         style="fill:#ffffff;stroke:none;stroke-width:0.226689;stroke-opacity:0"
         d="M 191.65445,2.0686076 V 15.965951 h 13.89683 z" />
      <path
         id="rect234-3-9-4-6-4-49-2-9"
         style="fill:#ffffff;stroke:none;stroke-width:0.226689;stroke-opacity:0"
         d="m 226.97374,-33.319413 13.96659,13.966589 v -13.966589 z" />
      <path
         id="rect234-7-2-6-6-3-0-0-1-1"
         style="fill:#ffffff;stroke:none;stroke-width:0.226689;stroke-opacity:0"
         d="M 198.70467,-33.319413 240.94033,8.9162516 V -5.1852132 l -28.1342,-28.1341998 z" />
    </g>
    <path
       id="path1037-5-9-0-5-7-7-4-0"
       style="fill:#ffffff;stroke:none;stroke-width:0.226689"
       d="m 289.87556,-109.01513 -7.08388,7.08388 56.53096,56.530972 7.08388,-7.083884 z" />
    <g
       id="g2840-4-6"
       transform="matrix(0.27301058,0.27301058,-0.30396659,0.30396659,79.743589,316.2888)">
      <g
         id="g2829-5-8"
         transform="matrix(2.2266828,0,0,1,-379.79521,0)">
        <path
           id="rect234-3-9-4-2-8"
           style="fill:#280b0b;stroke:none;stroke-width:0.372892;stroke-opacity:0"
           d="m 402.61161,142.39217 h -92.99262 v 23.19511 h 92.99262 z" />
        <path
           id="path1037-56-3-7-5-4"
           style="fill:#ffffff;stroke:none;stroke-width:0.372892"
           d="m 309.61899,119.08735 v 23.30482 h 92.99262 v -23.30482 z" />
        <path
           id="rect234-7-2-6-6-4-3"
           style="fill:#280b0b;stroke:none;stroke-width:0.372892;stroke-opacity:0"
           d="m 402.60424,188.89223 h -92.99263 v 23.19511 h 92.99263 z" />
        <path
           id="path1037-5-9-0-5-74-1"
           style="fill:#ffffff;stroke:none;stroke-width:0.372892"
           d="m 309.61161,165.58741 v 23.30482 h 92.99263 v -23.30482 z" />
        <path
           id="rect234-3-9-4-6-4-4"
           style="fill:#280b0b;stroke:none;stroke-width:0.372892;stroke-opacity:0"
           d="m 402.61711,49.388862 h -92.99262 v 23.19511 h 92.99262 z" />
        <path
           id="path1037-56-3-7-9-3-9"
           style="fill:#ffffff;stroke:none;stroke-width:0.372892"
           d="m 309.62449,26.084042 v 23.30482 h 92.99262 v -23.30482 z" />
        <path
           id="rect234-7-2-6-6-3-0-2"
           style="fill:#280b0b;stroke:none;stroke-width:0.372892;stroke-opacity:0"
           d="m 402.60974,95.888922 h -92.99263 v 23.195118 h 92.99263 z" />
        <path
           id="path1037-5-9-0-5-7-7-0"
           style="fill:#ffffff;stroke:none;stroke-width:0.372892"
           d="m 309.61711,72.584102 v 23.30482 h 92.99263 v -23.30482 z" />
      </g>
    </g>
    <path
       id="rect3084"
       style="fill:#666666;fill-opacity:1;stroke:#ffaaaa;stroke-width:0.264583;stroke-opacity:0"
       d="M 90.854919 398.1943 L 90.854919 538.0762 L 230.7363 538.0762 L 230.7363 398.1943 L 90.854919 398.1943 z M 131.38475 447.37476 L 180.67011 447.37476 L 180.67011 496.66064 L 131.38475 496.66064 L 131.38475 447.37476 z " />
  </g>
</svg>
